<?xml version="1.0" ?>
<mxfile host="app.diagrams.net" agent="python-script">
  <diagram id="main-diagram" name="Azure Infrastructure">
    <mxGraphModel dx="2500" dy="2000" grid="1" gridSize="10" guides="1" tooltips="1" connect="1" arrows="1" fold="1" page="1" pageScale="1" pageWidth="4681" pageHeight="3300">
      <root>
        <mxCell id="0"/>
        <mxCell id="1" parent="0"/>
        <mxCell id="node-0" style="image;aspect=fixed;html=1;points=[];align=center;fontSize=12;image=img/lib/azure2/general/Management_Groups.svg" parent="1" vertex="1">
          <mxGeometry x="160" y="100" width="80" height="80" as="geometry"/>
          <object label="&lt;b&gt;Root MG&lt;/b&gt;" as="value" type="Microsoft.Management/managementGroups" id="/managementGroups/mg-root" location="global"/>
        </mxCell>
        <mxCell id="node-1" style="image;aspect=fixed;html=1;points=[];align=center;fontSize=12;image=img/lib/azure2/general/Subscriptions.svg" parent="1" vertex="1">
          <mxGeometry x="160" y="250" width="80" height="80" as="geometry"/>
          <object label="&lt;b&gt;Test Subscription&lt;/b&gt;" as="value" type="Microsoft.Resources/subscriptions" id="/subscriptions/sub-001" subscription_id="sub-001" location="global"/>
        </mxCell>
        <mxCell id="node-2" style="image;aspect=fixed;html=1;points=[];align=center;fontSize=12;image=img/lib/azure2/general/Resource_Groups.svg" parent="1" vertex="1">
          <mxGeometry x="160" y="400" width="80" height="80" as="geometry"/>
          <object label="&lt;b&gt;Test RG&lt;/b&gt;" as="value" type="Microsoft.Resources/subscriptions/resourceGroups" id="/subscriptions/sub-001/resourceGroups/rg-test" resource_group="rg-test" subscription_id="sub-001" location="eastus"/>
        </mxCell>
        <mxCell id="node-3" style="image;aspect=fixed;html=1;points=[];align=center;fontSize=12;image=img/lib/azure2/compute/Virtual_Machine.svg" parent="1" vertex="1">
          <mxGeometry x="160" y="550" width="80" height="80" as="geometry"/>
          <object label="&lt;b&gt;Test VM&lt;/b&gt;" as="value" type="Microsoft.Compute/virtualMachines" id="/subscriptions/sub-001/resourceGroups/rg-test/providers/Microsoft.Compute/virtualMachines/vm-001" resource_group="rg-test" subscription_id="sub-001" location="eastus"/>
        </mxCell>
        <mxCell id="edge-0" style="edgeStyle=orthogonalEdgeStyle;rounded=0;orthogonalLoop=1;jettySize=auto;html=1;endArrow=classic;strokeColor=#1976d2;strokeWidth=2;" parent="1" source="node-1" target="node-0" edge="1">
          <mxGeometry relative="1" as="geometry"/>
        </mxCell>
        <mxCell id="edge-1" style="edgeStyle=orthogonalEdgeStyle;rounded=0;orthogonalLoop=1;jettySize=auto;html=1;endArrow=classic;strokeColor=#1976d2;strokeWidth=2;" parent="1" source="node-2" target="node-1" edge="1">
          <mxGeometry relative="1" as="geometry"/>
        </mxCell>
        <mxCell id="edge-2" style="edgeStyle=straight;rounded=0;html=1;endArrow=classic;strokeColor=#1976d2;strokeWidth=2;" parent="1" source="node-3" target="node-2" edge="1">
          <mxGeometry relative="1" as="geometry"/>
        </mxCell>
      </root>
    </mxGraphModel>
  </diagram>
</mxfile>
